PathFileType	4	(X/Y/Z)	Walk3.trc
DataRate	CameraRate	NumFrames	NumMarkers	Units	OrigDataRate	OrigDataStartFrame	OrigNumFrames
200.000000	200.000000	9	59	mm	200.000000	296	578
Frame#	Times		CLAV		STRN		RASI		RACR1		RUA1		RElbow		RFA1		RWRU		LACR1		LUA1		LFA1		LCAR		RTH1		RTH3		RTH2		LTH3		LLFC		LTB1		LTB3		LTB4		LToe		LTH2		RFHD		LTH4		LFHD		LTB2		RBack		RTH4		LMT1		RCAR		RWRR		C7		RPSI		LMT5		LTH1		T10		LMMAL		RLFC		RTB1		LPSI		LLMAL		RBHD		LElbow		LBHD		RTB2		RTB4		RToe		RElbowM		LWRU		RTB3		LWRR		RMT1		RLMAL		RMMAL		LASI		RMT5		RCAL		LElbowM		LCAL
			X1	Y1	Z1	X2	Y2	Z2	X3	Y3	Z3	X4	Y4	Z4	X5	Y5	Z5	X6	Y6	Z6	X7	Y7	Z7	X8	Y8	Z8	X9	Y9	Z9	X10	Y10	Z10	X11	Y11	Z11	X12	Y12	Z12	X13	Y13	Z13	X14	Y14	Z14	X15	Y15	Z15	X16	Y16	Z16	X17	Y17	Z17	X18	Y18	Z18	X19	Y19	Z19	X20	Y20	Z20	X21	Y21	Z21	X22	Y22	Z22	X23	Y23	Z23	X24	Y24	Z24	X25	Y25	Z25	X26	Y26	Z26	X27	Y27	Z27	X28	Y28	Z28	X29	Y29	Z29	X30	Y30	Z30	X31	Y31	Z31	X32	Y32	Z32	X33	Y33	Z33	X34	Y34	Z34	X35	Y35	Z35	X36	Y36	Z36	X37	Y37	Z37	X38	Y38	Z38	X39	Y39	Z39	X40	Y40	Z40	X41	Y41	Z41	X42	Y42	Z42	X43	Y43	Z43	X44	Y44	Z44	X45	Y45	Z45	X46	Y46	Z46	X47	Y47	Z47	X48	Y48	Z48	X49	Y49	Z49	X50	Y50	Z50	X51	Y51	Z51	X52	Y52	Z52	X53	Y53	Z53	X54	Y54	Z54	X55	Y55	Z55	X56	Y56	Z56	X57	Y57	Z57	X58	Y58	Z58	X59	Y59	Z59

296	1.48	-441.98	1337.5	-20.425	-362.7	1114.1	-10.456	-421.06	935.31	129.83	-490.17	1352.5	153.15	-506.85	1142.5	219.52	-526.63	1035.6	244.08	-447.16	902.04	246.68	-460	789.64	256.95	-507.05	1346.9	-188.77	-550.82	1140.8	-228.43	-556.1	898.43	-250.5	-565.83	737.45	-256.58	-507.6	730.27	169.72	-492.84	543.43	141.18	-435.05	649.28	127.98	-438.58	561.88	-132.95	-421.78	454.87	-117.08	-387.17	359.78	-35.268	-409.53	173.81	-26.546	-397.14	264.71	-34.666	-263.5	30.428	-63.306	-395.29	668.26	-127.41	-392.97	1578.8	24.691	-464.73	645.03	-153.55	-396.92	1575.7	-48.79	-423.65	265.73	-101.94	-609.39	1310	86.511	-501.23	636.95	153.18	-307.15	38.671	-32.402	-407.12	758.25	253.65	-409.47	805.31	205.21	-568.45	1413.9	-14.451	-635.53	970.78	59.581	-350.61	22.864	-107.77	-490.24	736.51	-174.47	-602.64	1129.9	-5.8416	-438.11	75.291	13.083	-501.39	451.58	126.68	-556.99	341.9	62.943	-633.76	971.45	-56.36	-457.18	61.136	-66.03	-565.96	1547.3	54.82	-587.06	1025.5	-233.68	-566.92	1552.7	-72.219	-643.94	313.56	132.76	-637.48	295.69	63.63	-764.07	44.006	81.834	-540.29	1013.8	161.63	-607.56	786.52	-258.94	-716.94	248.29	64.466	-552.21	778.81	-214.01	-778.22	75.621	53.326	-830.38	220.32	113.07	-801.21	213.91	37.227	-414.59	934.27	-131	-826.11	87.586	120.79	-876.27	242.35	64.324	-601.54	1015.7	-164.27	-503.94	29.304	-10.242
297	1.485	-436.54	1338.3	-20.686	-357.39	1114.8	-10.676	-416.07	936.21	129.9	-484.87	1353.2	152.92	-502.35	1143.3	219.23	-522.58	1036.5	243.68	-444.16	902.37	246.56	-457.89	790.11	257.05	-501.45	1347.9	-189.01	-544.18	1141.5	-228.88	-547.69	899.12	-250.68	-556.2	738.11	-256.61	-500.9	731.6	169.59	-484.12	544.89	141.27	-427.25	651.27	128.51	-435.52	561.93	-133.12	-419.57	454.75	-117.18	-385.52	359.5	-35.358	-408.93	173.65	-26.569	-396.11	264.48	-34.695	-263.47	30.391	-63.467	-391.57	668.06	-127.53	-387.13	1579.5	24.571	-461.1	645.27	-153.74	-391.07	1576.4	-48.944	-422.44	265.59	-102.04	-604.03	1310.9	86.038	-493.56	638.39	153.21	-307.2	38.69	-32.502	-405.33	758.16	253.63	-407.26	805.25	205.16	-562.89	1414.9	-14.739	-630.11	971.8	59.252	-350.64	22.826	-107.87	-486.01	736.92	-174.66	-597.29	1130.8	-6.409	-438.05	75.3	13.066	-490.94	453.39	126.76	-546.09	343.67	62.936	-628.57	972.32	-56.657	-457.17	61.169	-66.052	-560.16	1548.2	54.642	-579.67	1026	-234.31	-561.11	1553.8	-72.396	-632.99	315.24	132.69	-626.49	297.37	63.562	-750.92	45.916	83.242	-536.33	1014.7	161.23	-598.28	786.86	-259.4	-705.9	249.9	64.352	-543.25	779.6	-213.95	-765.41	77.41	54.51	-819.29	221.8	112.9	-790	215.3	37.076	-409.86	934.95	-131.87	-813.45	89.596	121.74	-865.44	243.13	63.957	-594.7	1016.2	-165.03	-503.93	29.351	-10.204
298	1.49	-431.14	1339.1	-20.937	-352.09	1115.5	-10.906	-411.1	937.09	129.99	-479.61	1354	152.7	-497.87	1144.1	218.94	-518.55	1037.4	243.29	-441.16	902.71	246.43	-455.79	790.59	257.14	-495.9	1348.9	-189.25	-537.56	1142.3	-229.31	-539.24	899.82	-250.85	-546.48	738.8	-256.62	-494.27	732.96	169.49	-475.45	546.4	141.36	-419.51	653.31	129.07	-432.49	561.98	-133.25	-417.38	454.63	-117.24	-383.93	359.23	-35.412	-408.34	173.5	-26.573	-395.1	264.26	-34.698	-263.45	30.358	-63.607	-387.87	667.84	-127.6	-381.29	1580.1	24.474	-457.48	645.51	-153.9	-385.23	1577.2	-49.07	-421.26	265.46	-102.12	-598.71	1311.8	85.572	-485.94	639.87	153.27	-307.25	38.706	-32.596	-403.53	758.11	253.62	-405.07	805.2	205.12	-557.36	1415.8	-15.015	-624.69	972.82	58.956	-350.68	22.789	-107.98	-481.78	737.33	-174.81	-591.96	1131.8	-6.9769	-437.99	75.309	13.054	-480.56	455.26	126.82	-535.17	345.44	62.896	-623.38	973.19	-56.923	-457.15	61.204	-66.069	-554.37	1549.2	54.488	-572.27	1026.5	-234.95	-555.3	1554.8	-72.549	-621.99	316.81	132.58	-615.43	298.95	63.45	-737.4	47.691	84.786	-532.41	1015.5	160.88	-588.93	787.22	-259.85	-694.72	251.32	64.187	-534.22	780.42	-213.88	-752.25	78.973	55.767	-808.05	222.99	112.65	-778.6	216.39	36.862	-405.15	935.61	-132.76	-800.48	91.385	122.74	-854.46	243.52	63.472	-587.86	1016.7	-165.82	-503.92	29.401	-10.163
299	1.495	-425.76	1339.9	-21.178	-346.81	1116.3	-11.15	-406.13	937.96	130.08	-474.37	1354.7	152.49	-493.41	1144.9	218.62	-514.55	1038.2	242.91	-438.17	903.06	246.3	-453.69	791.08	257.23	-490.37	1349.9	-189.47	-530.96	1143	-229.75	-530.73	900.55	-251	-536.68	739.53	-256.62	-487.69	734.34	169.42	-466.82	547.96	141.44	-411.83	655.4	129.66	-429.47	562.03	-133.34	-415.23	454.51	-117.28	-382.37	358.97	-35.431	-407.77	173.36	-26.559	-394.11	264.04	-34.677	-263.43	30.329	-63.728	-384.2	667.6	-127.64	-375.48	1580.8	24.395	-453.88	645.74	-154.01	-379.41	1577.9	-49.17	-420.1	265.34	-102.16	-593.42	1312.7	85.112	-478.36	641.38	153.34	-307.3	38.72	-32.682	-401.73	758.08	253.61	-402.89	805.16	205.08	-551.85	1416.8	-15.281	-619.27	973.85	58.69	-350.71	22.752	-108.07	-477.56	737.72	-174.93	-586.66	1132.8	-7.5436	-437.92	75.317	13.049	-470.23	457.18	126.88	-524.22	347.2	62.828	-618.2	974.04	-57.159	-457.12	61.242	-66.079	-548.59	1550.1	54.356	-564.84	1027.1	-235.6	-549.52	1555.9	-72.677	-610.93	318.26	132.43	-604.3	300.44	63.303	-723.55	49.312	86.456	-528.53	1016.4	160.56	-579.49	787.6	-260.29	-683.41	252.56	63.982	-525.13	781.27	-213.81	-738.77	80.304	57.095	-796.65	223.89	112.35	-767.01	217.17	36.596	-400.45	936.26	-133.66	-787.26	92.95	123.79	-843.33	243.54	62.885	-581.01	1017.3	-166.62	-503.92	29.455	-10.118
300	1.5	-420.4	1340.7	-21.409	-341.56	1117	-11.41	-401.16	938.83	130.17	-469.16	1355.5	152.29	-488.96	1145.6	218.3	-510.58	1039.1	242.53	-435.2	903.42	246.16	-451.59	791.57	257.33	-484.88	1350.9	-189.69	-524.37	1143.8	-230.18	-522.18	901.3	-251.14	-526.8	740.29	-256.61	-481.18	735.74	169.37	-458.22	549.57	141.51	-404.2	657.53	130.27	-426.47	562.06	-133.4	-413.11	454.4	-117.27	-380.85	358.72	-35.417	-407.2	173.22	-26.526	-393.12	263.83	-34.634	-263.42	30.304	-63.831	-380.55	667.35	-127.65	-369.67	1581.4	24.331	-450.31	645.96	-154.09	-373.6	1578.6	-49.246	-418.96	265.23	-102.18	-588.15	1313.5	84.66	-470.82	642.91	153.42	-307.34	38.731	-32.759	-399.93	758.07	253.61	-400.72	805.15	205.05	-546.37	1417.7	-15.536	-613.87	974.88	58.452	-350.75	22.714	-108.17	-473.36	738.09	-175.02	-581.36	1133.7	-8.1068	-437.86	75.325	13.053	-459.97	459.13	126.92	-513.25	348.95	62.741	-613.03	974.88	-57.364	-457.09	61.282	-66.082	-542.84	1551.1	54.246	-557.39	1027.6	-236.25	-543.74	1556.9	-72.782	-599.83	319.6	132.26	-593.1	301.82	63.131	-709.42	50.769	88.238	-524.68	1017.2	160.26	-569.99	788	-260.72	-671.97	253.61	63.745	-515.97	782.15	-213.72	-725.01	81.406	58.489	-785.1	224.5	111.99	-755.23	217.65	36.288	-395.75	936.88	-134.57	-773.79	94.287	124.88	-832.05	243.2	62.214	-574.18	1017.8	-167.44	-503.91	29.51	-10.068
301	1.505	-415.07	1341.4	-21.628	-336.34	1117.8	-11.687	-396.17	939.71	130.25	-463.98	1356.2	152.09	-484.53	1146.3	217.96	-506.63	1039.9	242.15	-432.24	903.79	246.02	-449.49	792.08	257.42	-479.42	1351.9	-189.9	-517.79	1144.6	-230.61	-513.58	902.08	-251.27	-516.85	741.1	-256.58	-474.73	737.14	169.34	-449.64	551.21	141.57	-396.62	659.71	130.89	-423.5	562.08	-133.42	-411.01	454.29	-117.23	-379.37	358.46	-35.371	-406.65	173.08	-26.477	-392.14	263.63	-34.571	-263.41	30.282	-63.917	-376.92	667.07	-127.63	-363.88	1582.1	24.28	-446.75	646.16	-154.13	-367.81	1579.4	-49.301	-417.86	265.13	-102.17	-582.91	1314.4	84.217	-463.3	644.45	153.51	-307.37	38.74	-32.828	-398.12	758.09	253.61	-398.55	805.15	205.02	-540.91	1418.7	-15.781	-608.47	975.9	58.24	-350.79	22.676	-108.25	-469.16	738.45	-175.08	-576.09	1134.7	-8.6643	-437.79	75.331	13.065	-449.78	461.12	126.95	-502.25	350.67	62.641	-607.86	975.7	-57.538	-457.06	61.324	-66.077	-537.1	1552	54.154	-549.93	1028.2	-236.92	-537.99	1558	-72.866	-588.68	320.82	132.07	-581.84	303.09	62.945	-695.03	52.056	90.11	-520.89	1018	159.97	-560.42	788.42	-261.14	-660.41	254.46	63.489	-506.75	783.06	-213.63	-710.99	82.284	59.939	-773.4	224.82	111.6	-743.28	217.83	35.949	-391.05	937.5	-135.48	-760.11	95.397	126	-820.62	242.5	61.48	-567.35	1018.3	-168.29	-503.9	29.568	-10.014
302	1.51	-409.76	1342.2	-21.835	-331.14	1118.5	-11.984	-391.15	940.6	130.31	-458.82	1356.9	151.91	-480.11	1147	217.6	-502.7	1040.7	241.77	-429.29	904.16	245.87	-447.38	792.6	257.52	-473.99	1352.9	-190.09	-511.23	1145.4	-231.04	-504.95	902.89	-251.38	-506.82	741.94	-256.54	-468.34	738.54	169.33	-441.08	552.89	141.62	-389.08	661.92	131.51	-420.56	562.1	-133.41	-408.94	454.17	-117.16	-377.92	358.22	-35.298	-406.09	172.94	-26.412	-391.17	263.43	-34.491	-263.39	30.262	-63.991	-373.3	666.76	-127.6	-358.1	1582.7	24.239	-443.23	646.35	-154.13	-362.04	1580	-49.337	-416.77	265.04	-102.14	-577.69	1315.2	83.784	-455.81	646	153.61	-307.4	38.748	-32.889	-396.3	758.14	253.63	-396.39	805.17	205	-535.48	1419.6	-16.015	-603.09	976.9	58.052	-350.83	22.638	-108.33	-464.99	738.78	-175.1	-570.83	1135.6	-9.2143	-437.72	75.336	13.086	-439.66	463.14	126.97	-491.23	352.37	62.536	-602.68	976.51	-57.683	-457.02	61.368	-66.063	-531.37	1552.9	54.08	-542.46	1028.8	-237.6	-532.25	1559	-72.931	-577.5	321.92	131.86	-570.51	304.26	62.755	-680.4	53.175	92.052	-517.14	1018.8	159.68	-550.77	788.86	-261.53	-648.73	255.12	63.223	-497.48	784	-213.52	-696.71	82.951	61.432	-761.56	224.85	111.18	-731.16	217.72	35.591	-386.35	938.11	-136.38	-746.23	96.28	127.14	-809.05	241.46	60.703	-560.53	1018.8	-169.17	-503.9	29.627	-9.9566
303	1.515	-404.47	1343	-22.03	-325.98	1119.3	-12.301	-386.1	941.52	130.35	-453.68	1357.6	151.72	-475.71	1147.7	217.24	-498.81	1041.5	241.38	-426.34	904.53	245.72	-445.26	793.12	257.62	-468.58	1353.9	-190.28	-504.67	1146.1	-231.47	-496.28	903.72	-251.49	-496.73	742.83	-256.49	-462	739.93	169.34	-432.54	554.59	141.65	-381.59	664.17	132.15	-417.64	562.1	-133.36	-406.89	454.06	-117.06	-376.48	357.97	-35.198	-405.55	172.8	-26.332	-390.19	263.23	-34.395	-263.38	30.244	-64.053	-369.71	666.44	-127.55	-352.33	1583.3	24.207	-439.73	646.51	-154.1	-356.28	1580.7	-49.354	-415.71	264.96	-102.08	-572.5	1316	83.361	-448.32	647.55	153.71	-307.43	38.754	-32.942	-394.48	758.2	253.66	-394.22	805.21	204.99	-530.07	1420.5	-16.237	-597.72	977.89	57.884	-350.87	22.599	-108.41	-460.83	739.09	-175.09	-565.58	1136.5	-9.7555	-437.65	75.339	13.115	-429.62	465.18	126.99	-480.18	354.04	62.434	-597.51	977.3	-57.801	-456.97	61.414	-66.041	-525.67	1553.8	54.023	-534.98	1029.3	-238.29	-526.53	1560.1	-72.976	-566.29	322.93	131.65	-559.13	305.31	62.569	-665.54	54.128	94.037	-513.46	1019.5	159.38	-541.07	789.33	-261.91	-636.92	255.6	62.956	-488.16	784.98	-213.41	-682.21	83.419	62.954	-749.58	224.6	110.75	-718.89	217.33	35.223	-381.65	938.72	-137.27	-732.15	96.935	128.29	-797.32	240.08	59.907	-553.71	1019.4	-170.07	-503.89	29.688	-9.8954
304	1.52	-399.21	1343.7	-22.212	-320.84	1120	-12.64	-381.01	942.48	130.36	-448.57	1358.2	151.55	-471.32	1148.4	216.85	-494.94	1042.3	240.99	-423.41	904.91	245.56	-443.13	793.66	257.72	-463.2	1354.9	-190.45	-498.13	1146.9	-231.9	-487.57	904.57	-251.58	-486.57	743.76	-256.41	-455.71	741.32	169.39	-424.01	556.32	141.67	-374.13	666.43	132.77	-414.76	562.08	-133.27	-404.86	453.95	-116.92	-375.07	357.73	-35.074	-405	172.67	-26.239	-389.21	263.04	-34.284	-263.37	30.227	-64.105	-366.13	666.09	-127.5	-346.58	1583.9	24.183	-436.27	646.66	-154.02	-350.54	1581.3	-49.356	-414.67	264.89	-101.99	-567.33	1316.9	82.948	-440.85	649.09	153.82	-307.44	38.76	-32.988	-392.64	758.29	253.7	-392.04	805.26	204.99	-524.68	1421.4	-16.448	-592.38	978.85	57.733	-350.91	22.559	-108.47	-456.7	739.37	-175.05	-560.35	1137.4	-10.287	-437.57	75.341	13.152	-419.66	467.23	126.99	-469.1	355.67	62.339	-592.33	978.06	-57.896	-456.92	61.463	-66.01	-519.99	1554.6	53.98	-527.49	1029.9	-239	-520.82	1561.1	-73.006	-555.06	323.83	131.44	-547.7	306.25	62.396	-650.46	54.922	96.041	-509.83	1020.3	159.05	-531.3	789.82	-262.28	-625.01	255.89	62.695	-478.78	786	-213.28	-667.47	83.7	64.491	-737.46	224.07	110.32	-706.47	216.67	34.856	-376.93	939.33	-138.14	-717.88	97.362	129.44	-785.45	238.37	59.111	-546.92	1019.9	-171.01	-503.89	29.752	-9.8311
